<?xml version="1.0" encoding="iso-8859-1"?>
<!-- Generator: Adobe Illustrator 19.0.0, SVG Export Plug-In . SVG Version: 6.00 Build 0)  -->
<svg xmlns="http://www.w3.org/2000/svg" xmlns:xlink="http://www.w3.org/1999/xlink" version="1.1" id="Layer_1" x="0px" y="0px" viewBox="0 0 512 512" style="enable-background:new 0 0 512 512;" xml:space="preserve" width="128" height="128">
<g id="XMLID_2058_">
	<circle id="XMLID_2574_" style="fill:#FFE578;" cx="256" cy="256" r="256"/>
	<path id="XMLID_2059_" style="fill:#FDC142;" d="M256,482.029c-60.375,0-117.135-23.511-159.826-66.202S29.971,316.375,29.971,256   S53.482,138.865,96.174,96.174S195.625,29.971,256,29.971s117.135,23.511,159.826,66.202S482.029,195.625,482.029,256   s-23.511,117.135-66.202,159.826S316.375,482.029,256,482.029z"/>
	<circle id="XMLID_2572_" style="fill:#FD8724;" cx="256" cy="256" r="212.637"/>
	<g id="XMLID_2060_">
		<path id="XMLID_2061_" style="fill:#FFE578;" d="M134.902,384.824c-1.977,0-3.955-0.755-5.463-2.263    c-69.786-69.786-69.786-183.336,0-253.122c3.017-3.017,7.909-3.017,10.927,0c3.018,3.017,3.018,7.909,0,10.927    c-63.761,63.761-63.761,167.508,0,231.269c3.018,3.017,3.018,7.909,0,10.927C138.857,384.069,136.88,384.824,134.902,384.824z"/>
	</g>
	<g id="XMLID_2062_">
		<path id="XMLID_2063_" style="fill:#FFE578;" d="M377.098,384.824c-1.977,0-3.955-0.755-5.463-2.263    c-3.018-3.017-3.018-7.909,0-10.927c63.761-63.761,63.761-167.508,0-231.269c-3.018-3.017-3.018-7.909,0-10.927    c3.017-3.017,7.909-3.017,10.927,0c69.786,69.786,69.786,183.336,0,253.122C381.052,384.069,379.075,384.824,377.098,384.824z"/>
	</g>
	<g id="XMLID_2064_">
		<g id="XMLID_2065_">
			<g id="XMLID_2066_">
				<g id="XMLID_2067_">
					<path id="XMLID_2068_" style="fill:#E3F4FF;" d="M239.411,156.839v-23.701c0-7.683-6.228-13.911-13.911-13.911       c-7.683,0-13.911,6.228-13.911,13.911v23.701H239.411z"/>
				</g>
				<g id="XMLID_2069_">
					<path id="XMLID_2070_" style="fill:#E3F4FF;" d="M300.412,156.839v-23.701c0-7.683-6.228-13.911-13.911-13.911       s-13.911,6.228-13.911,13.911v23.701H300.412z"/>
				</g>
			</g>
			<g id="XMLID_2071_">
				<g id="XMLID_2072_">
					<path id="XMLID_2073_" style="fill:#E3F4FF;" d="M211.588,355.309v23.553c0,7.683,6.228,13.911,13.911,13.911       c7.683,0,13.911-6.228,13.911-13.911v-23.553H211.588z"/>
				</g>
				<g id="XMLID_2074_">
					<path id="XMLID_2075_" style="fill:#E3F4FF;" d="M272.589,355.309v23.553c0,7.683,6.228,13.911,13.911,13.911       s13.911-6.228,13.911-13.911v-23.553H272.589z"/>
				</g>
			</g>
		</g>
		<path id="XMLID_2076_" style="fill:#FDC142;" d="M319.998,256.493c12.009-11.029,19.613-26.783,19.819-44.287    c0.4-34.023-27.958-61.864-61.983-61.864h-89.15c-8.74,0-16.183,6.796-16.494,15.53c-0.326,9.169,7.011,16.706,16.107,16.706    h0.386c3.447,0,6.241,2.794,6.241,6.241v135.35c0,3.447-2.794,6.241-6.241,6.241h0c-8.414,0-15.712,6.292-16.441,14.675    c-0.83,9.551,6.677,17.561,16.055,17.561h89.536c34.025,0,62.383-27.841,61.983-61.864    C339.61,283.276,332.007,267.522,319.998,256.493z M278.686,182.577c15.935,0,28.899,12.964,28.899,28.899    c0,15.935-12.964,28.899-28.899,28.899H227.16v-57.798H278.686z M278.686,330.409H227.16V272.61h51.526    c15.935,0,28.899,12.964,28.899,28.899S294.621,330.409,278.686,330.409z"/>
	</g>
	<g id="XMLID_2080_">
		<g id="XMLID_2081_">
			<path id="XMLID_2082_" style="fill:#E3F4FF;" d="M261.416,87.727h-10.832c-4.267,0-7.726-3.459-7.726-7.726     s3.459-7.726,7.726-7.726h10.832c4.267,0,7.726,3.459,7.726,7.726S265.683,87.727,261.416,87.727z"/>
		</g>
		<g id="XMLID_2083_">
			<path id="XMLID_2084_" style="fill:#E3F4FF;" d="M261.416,439.725h-10.832c-4.267,0-7.726-3.459-7.726-7.726     s3.459-7.726,7.726-7.726h10.832c4.267,0,7.726,3.459,7.726,7.726S265.683,439.725,261.416,439.725z"/>
		</g>
	</g>
</g>















</svg>
