<svg width="128" height="128" xmlns="http://www.w3.org/2000/svg">
<g><path d="M559.5,347.1l-48.1-11.3l-28.2,122.9l16.9,3.9l28.6,6.8c56.1,13.2,85.8,0.5,96-43.9C634.6,382.4,614.2,360,559.5,347.1z" style="fill:#f4c600"></path><path d="M520.5,523.9L471,512.3l-32,139.7l16.8,4l33.3,7.8c61,14.4,94.5,1.4,105.7-47.7C606.3,565.6,582.7,538.6,520.5,523.9z" style="fill:#f4c600"></path><path d="M500,10C229.4,10,10,229.4,10,500s219.4,490,490,490s490-219.4,490-490S770.6,10,500,10z M745.7,438.4c-10.7,47-40.7,77.8-103.5,82.3c69.8,33,89.4,74.4,76.1,132.5c-19.2,83.9-81.4,99.8-198.7,74.7l-23.2,101.1L437.4,815l23.2-100.9l-42.2-9.9l-23.1,100.9l-59.1-13.9l23.1-100.9l-108.1-25.4l28-63.8l23.4,5.5c34.8,8.2,39.9,3.3,47.1-27.9l52.5-229.3c7.3-31.5,4.8-38.2-30-46.4l-31.9-7.5l12.4-54.1L465,267.8l22.1-96.8l59.1,13.9L524,281.7l42.2,9.9l22.2-96.7l59,13.9l-22.2,97C720.5,331.3,761,371.4,745.7,438.4z" style="fill:#f4c600"></path></g></svg>